<svg width="25" height="17" xmlns="http://www.w3.org/2000/svg" xmlns:xlink="http://www.w3.org/1999/xlink" xmlns:svgjs="http://svgjs.com/svgjs" viewBox="0.202 0 24.597 17" fill="#575757" opacity=".302"><svg xmlns="http://www.w3.org/2000/svg" width="25" height="17" viewBox="2.004 1.999 23.152 16.002"><path paint-order="stroke fill markers" fill-rule="evenodd" d="M18.125 11H5.497l5.416 5.293c.4.391.4 1.025 0 1.415-.4.39-1.048.39-1.447 0l-7.162-7.001a.985.985 0 0 1 0-1.415l7.162-7c.2-.195.461-.293.723-.293.262 0 .524.098.724.293.4.39.4 1.024 0 1.414L5.497 9h12.628c.565 0 1.024.448 1.023 1 0 .552-.458 1-1.023 1zm6.031-2h-1a1 1 0 0 0 0 2h1a1 1 0 0 0 0-2z"/></svg></svg>