<svg width="25" height="17" xmlns="http://www.w3.org/2000/svg" xmlns:xlink="http://www.w3.org/1999/xlink" xmlns:svgjs="http://svgjs.com/svgjs" viewBox="0.202 0 24.597 17" fill="#fff" opacity=".302"><svg xmlns="http://www.w3.org/2000/svg" width="25" height="17" viewBox="2 1.999 23.152 16.002"><path paint-order="stroke fill markers" fill-rule="evenodd" d="M9.03 11H21.66l-5.416 5.293a.985.985 0 0 0 0 1.415c.4.39 1.048.39 1.448 0l7.162-7.001c.4-.39.4-1.024 0-1.415l-7.162-7a1.032 1.032 0 0 0-.724-.293c-.262 0-.524.098-.724.293a.984.984 0 0 0 0 1.414L21.66 9H9.031c-.565 0-1.023.448-1.023 1s.458 1 1.023 1zM3 9h1a1 1 0 1 1 0 2H3a1 1 0 1 1 0-2z"/></svg></svg>